<svg width="359.51pt" height="131.44pt" version="1.1" viewBox="0 0 359.51 131.44" xmlns="http://www.w3.org/2000/svg" xmlns:xlink="http://www.w3.org/1999/xlink">
 <defs>
 </defs>
 <g fill="none" stroke="#000" stroke-linecap="square" stroke-width="1.5">
  <path transform="translate(-56.285 -108.76)" d="m57.6 201.12h357.12" clip-path="url(#p3bd37cc5f9)"/>
  <path transform="translate(-56.285 -108.76)" d="m224.76 239.11v-129.17" clip-path="url(#p3bd37cc5f9)"/>
  <path transform="translate(-56.285 -108.76)" d="m72.797 208.72 4.04e-4 -15.096" clip-path="url(#p3bd37cc5f9)"/>
  <path transform="translate(-56.285 -108.76)" d="m148.78 208.72v-15.197" clip-path="url(#p3bd37cc5f9)"/>
  <path transform="translate(-56.285 -108.76)" d="m224.76 208.72v-15.197" clip-path="url(#p3bd37cc5f9)"/>
  <path transform="translate(-56.285 -108.76)" d="m300.75 208.72v-15.197" clip-path="url(#p3bd37cc5f9)"/>
  <path transform="translate(-56.285 -108.76)" d="m376.73 208.72v-15.197" clip-path="url(#p3bd37cc5f9)"/>
  <path transform="translate(-56.285 -108.76)" d="m224.76 159.33 1.535-1.3676 1.535-1.3396 1.535-1.3117 1.535-1.2838 1.535-1.2559 1.535-1.228 1.535-1.2001 1.535-1.1722 1.535-1.1443 1.535-1.1164 1.535-1.0885 1.535-1.0606 1.535-1.0326 1.535-1.0047 1.535-0.97682 1.535-0.94892 1.535-0.92101 1.535-0.89309 1.535-0.86519 1.535-0.83728 1.535-0.80937 1.535-0.78146 1.535-0.75355 1.535-0.72564 1.535-0.69773 1.535-0.66982 1.535-0.64191 1.535-0.61401 1.535-0.58609 1.535-0.55819 1.535-0.53027 1.535-0.50237 1.535-0.47446 1.535-0.44655 1.535-0.41864 1.535-0.39072 1.535-0.36283 1.535-0.33491 1.535-0.307 1.535-0.27909 1.535-0.25118 1.535-0.22328 1.535-0.19536 1.535-0.16746 1.535-0.13955 1.535-0.11163 1.535-0.0837 1.535-0.0558 1.535-0.0279h1.535l1.535 0.0279 1.535 0.0558 1.535 0.0837 1.535 0.11163 1.535 0.13955 1.535 0.16746 1.535 0.19536 1.535 0.22328 1.535 0.25118 1.535 0.27909 1.535 0.307 1.535 0.33491 1.535 0.36283 1.535 0.39072 1.535 0.41864 1.535 0.44655 1.535 0.47446 1.535 0.50237 1.535 0.53027 1.535 0.55819 1.535 0.58609 1.535 0.61401 1.535 0.64191 1.535 0.66982 1.535 0.69773 1.535 0.72564 1.535 0.75355 1.535 0.78146 1.535 0.80937 1.535 0.83728 1.535 0.86519 1.535 0.89309 1.535 0.92101 1.535 0.94892 1.535 0.97682 1.535 1.0047 1.535 1.0326 1.535 1.0606 1.535 1.0885 1.535 1.1164 1.535 1.1443 1.535 1.1722 1.535 1.2001 1.535 1.228 1.535 1.2559 1.535 1.2838 1.535 1.3117 1.535 1.3396 1.535 1.3676" clip-path="url(#p3bd37cc5f9)"/>
 </g>
 <defs>
  <path id="m59296f6b58" d="m0 3c0.79561 0 1.5587-0.3161 2.1213-0.87868 0.56258-0.56258 0.87868-1.3257 0.87868-2.1213s-0.3161-1.5587-0.87868-2.1213c-0.56258-0.56258-1.3257-0.87868-2.1213-0.87868s-1.5587 0.3161-2.1213 0.87868c-0.56258 0.56258-0.87868 1.3257-0.87868 2.1213s0.3161 1.5587 0.87868 2.1213c0.56258 0.56258 1.3257 0.87868 2.1213 0.87868z" stroke="#000"/>
 </defs>
 <g transform="translate(-56.285 -108.76)" clip-path="url(#p3bd37cc5f9)" stroke="#000000">
  <use x="224.76256" y="159.33141" width="100%" height="100%" xlink:href="#m59296f6b58"/>
  <use x="376.72852" y="159.33141" width="100%" height="100%" xlink:href="#m59296f6b58"/>
 </g>
 <g fill="none" stroke="#000" stroke-linecap="square" stroke-width="1.5">
  <path transform="translate(-56.285 -108.76)" d="m379.89 307.5 0.73552-34.379 0.73553-23.473 0.73552-17.046 0.73553-12.94 0.73552-10.159 0.73553-8.1871 0.73553-6.7386 0.73552-5.6433 0.73553-4.7949 0.73552-4.1245 0.73553-3.5855 0.73552-3.1457 0.73553-2.7821 0.73552-2.4781 0.73553-2.2214 0.73553-2.0026 0.73552-1.8146 0.73553-1.6519 0.73552-1.5101 0.73553-1.3858 0.73552-1.2763 0.73553-1.1793 0.73552-1.0929 0.73553-1.0157 0.73552-0.94635 0.73553-0.88389 0.73553-0.82741 0.73552-0.7762 0.73553-0.72958 0.73552-0.68704 0.73553-0.64812 0.73552-0.61242 0.73553-0.57959 0.73552-0.54932 0.73553-0.52137 0.73552-0.4955 0.73553-0.4715 0.73553-0.44922 0.73552-0.42847 0.73553-0.40912 0.73552-0.39107 0.73553-0.37417 0.73552-0.35835 0.73553-0.34352 0.73552-0.32958 0.73553-0.31648 0.73552-0.30414 0.73553-0.29251 0.73553-0.28154 0.73552-0.27117 0.73553-0.26136 0.73552-0.25208 0.73553-0.24328 0.73552-0.23493 0.73553-0.22701 0.73552-0.21948 0.73553-0.21233 0.73552-0.2055 0.73553-0.19902 0.73553-0.19282 0.73552-0.18692 0.73553-0.18128 0.73552-0.17589 0.73553-0.17075 0.73552-0.16581 0.73553-0.1611 0.73552-0.15658 0.73553-0.15225 0.73553-0.1481 0.73552-0.1441 0.73553-0.14029 0.73552-0.1366 0.73553-0.13307 0.73552-0.12967 0.73553-0.1264 0.73552-0.12326 0.73553-0.12022 0.73552-0.1173 0.73553-0.11448 0.73553-0.11177 0.73552-0.10915 0.73553-0.10662 0.73552-0.10417 0.73553-0.10182 0.73552-0.0995 0.73553-0.0973 0.73552-0.0952 0.73553-0.0931 0.73553-0.0911 0.73552-0.0892 0.73553-0.0873 0.73552-0.0855 0.73553-0.0838 0.73552-0.0821 0.73553-0.0804 0.73552-0.0788 0.73553-0.0772 0.73552-0.0757 0.73553-0.0743" clip-path="url(#p3bd37cc5f9)"/>
  <path transform="translate(-56.285 -108.76)" d="m224.76 201.12-75.783-37.891" clip-path="url(#p3bd37cc5f9)"/>
  <path transform="translate(-56.285 -108.76)" d="m57.6 194.77 0.92101-0.0663 0.92101-0.0669 0.921-0.0676 0.92101-0.0684 0.92101-0.0691 0.92101-0.0698 0.92101-0.0705 0.921-0.0713 0.92101-0.0721 0.92101-0.0729 0.92101-0.0737 0.92101-0.0745 0.921-0.0754 0.92101-0.0763 0.92101-0.0772 0.92101-0.0781 0.92101-0.079 0.921-0.08 0.92101-0.081 0.92101-0.082 0.92101-0.083 0.92101-0.0841 0.921-0.0851 0.92101-0.0863 0.92101-0.0874 0.92101-0.0886 0.92101-0.0898 0.921-0.091 0.92101-0.0923 0.92101-0.0936 0.92101-0.095 0.92101-0.0964 0.921-0.0978 0.92101-0.0993 0.92101-0.10081 0.92101-0.10239 0.92101-0.104 0.92101-0.10567 0.921-0.1074 0.92101-0.10918 0.92101-0.11103 0.92101-0.11293 0.92101-0.1149 0.921-0.11695 0.92101-0.11906 0.92101-0.12126 0.921-0.12354 0.92101-0.1259 0.921-0.12836 0.92101-0.13091 0.92101-0.13358 0.921-0.13634 0.92101-0.13922 0.921-0.14224 0.92101-0.14539 0.92101-0.14867 0.921-0.1521 0.92101-0.15571 0.921-0.15949 0.92101-0.16344 0.921-0.16762 0.92101-0.17199 0.92101-0.17662 0.921-0.18149 0.92101-0.18664 0.921-0.19209 0.92101-0.19787 0.92101-0.20401 0.921-0.21054 0.92101-0.2175 0.921-0.22494 0.92101-0.23291 0.921-0.24146 0.92101-0.25066 0.921-0.2606 0.92101-0.27135 0.92101-0.28302 0.921-0.29576 0.92101-0.30968 0.921-0.32499 0.92101-0.34188 0.92101-0.36063 0.921-0.38156 0.92101-0.40507 0.921-0.43166 0.92101-0.46199 0.921-0.49691 0.92101-0.53755 0.92101-0.58542 0.921-0.64266 0.92101-0.71232 0.921-0.79894 0.92101-0.90959 0.921-1.0559 0.92101-1.2584 0.92101-1.5576 0.921-2.0448 0.92101-2.9831 0.921-5.0216" clip-path="url(#p3bd37cc5f9)"/>
 </g>
 <defs>
  <path id="mbdb788169f" d="m0 3c0.79561 0 1.5587-0.3161 2.1213-0.87868 0.56258-0.56258 0.87868-1.3257 0.87868-2.1213s-0.3161-1.5587-0.87868-2.1213c-0.56258-0.56258-1.3257-0.87868-2.1213-0.87868s-1.5587 0.3161-2.1213 0.87868c-0.56258 0.56258-0.87868 1.3257-0.87868 2.1213s0.3161 1.5587 0.87868 2.1213c0.56258 0.56258 1.3257 0.87868 2.1213 0.87868z" stroke="#000"/>
 </defs>
 <g transform="translate(-56.285 -108.76)" clip-path="url(#p3bd37cc5f9)">
  <use x="224.76256" y="201.12204" width="100%" height="100%" fill-opacity="0" stroke="#000000" xlink:href="#mbdb788169f"/>
 </g>
 <g transform="translate(-56.285 -108.76)" fill="none" stroke="#000" stroke-linecap="round">
  <path d="m224.76 110.7q0-0.37992 0 0.3582"/>
  <path d="m222.76 113.26 2-4 2 4"/>
 </g>
 <g transform="translate(-54.585 -108.76)" fill="none" stroke="#000" stroke-linecap="round">
  <path d="m413.96 201.12q0.37991 0-0.3582 0"/>
  <path d="m409.6 199.12 4 2-4 2"/>
 </g>
 <g transform="matrix(.18 0 0 -.18 1.3148 122.76)">
  <defs>
   <path id="DejaVuSans-Bold-2d" transform="scale(.015625)" d="m347 2297h1962v-909h-1962z"/>
   <path id="DejaVuSans-Bold-32" transform="scale(.015625)" d="m1844 884h2053v-884h-3391v884l1703 1504q229 206 338 403t109 409q0 328-220 528t-586 200q-281 0-616-120-334-120-715-358v1025q406 134 803 204 397 71 778 71 838 0 1302-369 464-368 464-1028 0-381-197-711-197-329-828-883z"/>
  </defs>
  <use width="100%" height="100%" xlink:href="#DejaVuSans-Bold-2d"/>
  <use x="41.503906" width="100%" height="100%" xlink:href="#DejaVuSans-Bold-32"/>
 </g>
 <g transform="matrix(.18 0 0 -.18 77.295 122.76)">
  <defs>
   <path id="DejaVuSans-Bold-31" transform="scale(.015625)" d="m750 831h1063v3016l-1091-225v819l1084 225h1144v-3835h1063v-831h-3263z"/>
  </defs>
  <use width="100%" height="100%" xlink:href="#DejaVuSans-Bold-2d"/>
  <use x="41.503906" width="100%" height="100%" xlink:href="#DejaVuSans-Bold-31"/>
 </g>
 <g transform="matrix(.18 0 0 -.18 236.86 122.76)">
  <use width="100%" height="100%" xlink:href="#DejaVuSans-Bold-31"/>
 </g>
 <g transform="matrix(.18 0 0 -.18 312.84 122.76)">
  <use width="100%" height="100%" xlink:href="#DejaVuSans-Bold-32"/>
 </g>
 <g transform="matrix(.99996 0 0 .99999 -56.268 -107.06)" fill="none" stroke="#000" stroke-linecap="round">
  <path d="m381.83 238.35q-0.017 0.37992 0.016-0.35709"/>
  <path d="m384.02 234.09-2.1768 3.9066-1.8192-4.0854"/>
 </g>
 <g transform="translate(-58.186 -108.76)" fill="none" stroke="#000" stroke-linecap="round">
  <path d="m58.36 194.72q-0.37992 0.0273 0.35533-0.0256"/>
  <path d="m62.848 196.4-4.1331-1.708 3.8463-2.2817"/>
 </g>
 <defs>
  <clipPath id="p3bd37cc5f9">
   <rect x="57.6" y="109.94" width="357.12" height="129.17"/>
  </clipPath>
 </defs>
</svg>
