<svg width="460.8pt" height="345.6pt" version="1.1" viewBox="0 0 460.8 345.6" xmlns="http://www.w3.org/2000/svg" xmlns:xlink="http://www.w3.org/1999/xlink">
 <defs>
  <style type="text/css">*{stroke-linejoin: round; stroke-linecap: butt}</style>
 </defs>
 <path d="M 0,345.6 H 460.8 V 0 H 0 Z" fill="#fff"/>
 <path d="m57.6 174.53h357.12" clip-path="url(#pdde9b02e71)" fill="none" stroke="#000" stroke-linecap="square" stroke-width="1.5"/>
 <path d="m72.14 261.77v-174.47" clip-path="url(#pdde9b02e71)" fill="none" stroke="#000" stroke-linecap="square" stroke-width="1.5"/>
 <path d="m72.14 101.83 1.7172 0.0811 1.7172 0.24315 1.7172 0.40464 1.7172 0.56523 2.5758 1.1461 2.5758 1.4988 2.5758 1.8439 2.5758 2.1798 2.5758 2.5047 2.5758 2.8171 2.5758 3.1153 2.5758 3.3979 3.4344 4.9404 3.4344 5.3682 3.4344 5.7482 4.293 7.6411 5.1516 9.6966 6.8688 13.502 13.738 27.158 5.1516 9.6122 4.293 7.5468 3.4344 5.6579 3.4344 5.2656 3.4344 4.8264 2.5758 3.3055 2.5758 3.0175 2.5758 2.7144 2.5758 2.3977 2.5758 2.0689 2.5758 1.7298 2.5758 1.3819 2.5758 1.0272 1.7172 0.48507 1.7172 0.32398 1.7172 0.16218h1.7172l1.7172-0.16218 1.7172-0.32398 1.7172-0.48507 1.7172-0.64507 2.5758-1.2644 2.5758-1.6147 2.5758-1.957 2.5758-2.2894 2.5758-2.6103 2.5758-2.9181 2.5758-3.2113 3.4344-4.7097 3.4344-5.1601 3.4344-5.5644 4.293-7.4482 4.293-7.8984 6.0102-11.604 20.606-40.434 4.293-7.7312 4.293-7.2386 3.4344-5.3682 3.4344-4.9404 3.4344-4.4685 2.5758-3.0175 2.5758-2.7144 2.5758-2.3977 2.5758-2.0689 2.5758-1.7298 2.5758-1.3819 2.5758-1.0272 1.7172-0.48507 1.7172-0.32398 1.7172-0.16218h1.7172l1.7172 0.16218 1.7172 0.32398 1.7172 0.48507 1.7172 0.64507 2.5758 1.2644 2.5758 1.6147 2.5758 1.957 2.5758 2.2894 2.5758 2.6103 2.5758 2.9181 2.5758 3.2113 3.4344 4.7097 3.4344 5.1601 3.4344 5.5644 4.293 7.4482 4.293 7.8984 6.0102 11.604 20.606 40.434 4.293 7.7312 4.293 7.2386 3.4344 5.3682 3.4344 4.9404 3.4344 4.4685 2.5758 3.0175 2.5758 2.7144 2.5758 2.3977 2.5758 2.0689 2.5758 1.7298 2.5758 1.3819 2.5758 1.0272 1.7172 0.48507 1.7172 0.32398 1.7172 0.16218 0.8586 0.0203v0" clip-path="url(#pdde9b02e71)" fill="none" stroke="#000" stroke-linecap="square" stroke-width="1.5"/>
 <defs>
  <path id="m98d40811c0" d="m0 3c0.79561 0 1.5587-0.3161 2.1213-0.87868 0.56258-0.56258 0.87868-1.3257 0.87868-2.1213s-0.3161-1.5587-0.87868-2.1213c-0.56258-0.56258-1.3257-0.87868-2.1213-0.87868s-1.5587 0.3161-2.1213 0.87868c-0.56258 0.56258-0.87868 1.3257-0.87868 2.1213s0.3161 1.5587 0.87868 2.1213c0.56258 0.56258 1.3257 0.87868 2.1213 0.87868z" stroke="#000"/>
 </defs>
 <g clip-path="url(#pdde9b02e71)">
  <use x="300.52652" y="101.83018" width="100%" height="100%" stroke="#000000" xlink:href="#m98d40811c0"/>
 </g>
 <g transform="translate(.000435 -1.5996)" fill="none" stroke="#000" stroke-linecap="round">
  <path d="m72.14 88.018q0-0.36349 0 0.39106"/>
  <path d="m70.14 92.409 2-4 2 4"/>
 </g>
 <g transform="translate(1.6)" fill="none" stroke="#000" stroke-linecap="round">
  <path d="m414.65 174.53q0.0364 0-1.0453 0"/>
  <path d="m409.6 172.53 4 2-4 2"/>
 </g>
 <g transform="matrix(.1 0 0 -.1 298.89 94.56)">
  <defs>
   <path id="DejaVuSans-Oblique-50" transform="scale(.015625)" d="m1081 4666h1460q637 0 971-297 335-297 335-869 0-769-494-1197t-1387-428h-794l-366-1875h-634zm532-519-338-1753h794q537 0 824 275 288 275 288 787 0 328-195 509-195 182-548 182z"/>
  </defs>
  <use transform="translate(0 .09375)" width="100%" height="100%" xlink:href="#DejaVuSans-Oblique-50"/>
 </g>
 <defs>
  <clipPath id="pdde9b02e71">
   <rect x="57.6" y="87.291" width="357.12" height="174.47"/>
  </clipPath>
 </defs>
</svg>
